<svg xmlns="http://www.w3.org/2000/svg" width="16" height="16" viewBox="0 0 263 300">
  <path fill="currentColor" d="M1.84577e-10 100.797V38.6224C1.88813e-05 35.8899 1.45777 33.365 3.82414 31.9988L57.6539 0.920185C60.0203 -0.446051 62.9358 -0.446051 65.3022 0.920185L119.132 31.9988C121.498 33.3651 122.956 35.8899 122.956 38.6224V70.375C123.192 80.9262 128.769 91.103 138.577 96.7655C148.384 102.428 159.986 102.169 169.242 97.0979L196.74 81.2217C199.107 79.8554 202.022 79.8554 204.388 81.2217L258.218 112.3C260.585 113.667 262.042 116.191 262.042 118.924V181.081C262.042 183.814 260.585 186.339 258.218 187.705L204.388 218.783C202.022 220.15 199.107 220.15 196.74 218.783L169.464 203.036C160.173 197.847 148.465 197.536 138.579 203.244C128.772 208.906 123.195 219.083 122.959 229.634V261.378C122.959 264.111 121.501 266.635 119.135 268.002L65.3048 299.08C62.9384 300.447 60.0229 300.447 57.6566 299.08L3.82673 268.002C1.46036 266.635 0.00260562 264.111 0.00260562 261.378V199.221C0.0026245 196.488 1.46038 193.963 3.82675 192.597L57.6565 161.519C60.0229 160.152 62.9384 160.152 65.3048 161.519L92.8656 177.431C102.11 182.467 113.679 182.711 123.463 177.062C133.349 171.355 138.934 161.06 139.086 150.419C138.85 139.868 133.274 128.601 123.466 122.938C113.658 117.276 102.056 117.534 92.8007 122.606L65.1758 138.645C62.7991 140.025 59.8649 140.024 57.4894 138.642L3.80216 107.407C1.44816 106.038 -1.88809e-05 103.52 1.84577e-10 100.797Z"/>
</svg>
